<svg xmlns="http://www.w3.org/2000/svg" width="22" height="12" viewBox="0 0 22 12"><g><g><path fill="#fff" d="M21.701 7.179a.94.94 0 0 0-1.363 0l-1.352 1.403V1.001C18.986.448 18.554 0 18.02 0H8.582c-.532 0-.964.448-.964 1 0 .553.432 1.002.964 1.002h8.475v6.58l-1.352-1.404a.94.94 0 0 0-1.364 0 1.028 1.028 0 0 0 0 1.416l2.998 3.112a.947.947 0 0 0 .682.293.948.948 0 0 0 .683-.293l2.998-3.112a1.027 1.027 0 0 0 0-1.415zm-8.3 2.82H4.926V3.416l1.352 1.404a.944.944 0 0 0 1.364 0 1.028 1.028 0 0 0 0-1.415L4.643.293A.947.947 0 0 0 3.962 0a.947.947 0 0 0-.683.293L.281 3.406a1.028 1.028 0 0 0 0 1.415.94.94 0 0 0 1.364 0l1.353-1.404V11c0 .552.431 1 .964 1h9.44c.532 0 .963-.448.963-1 0-.553-.431-1-.964-1z"/></g></g></svg>